<svg
  xmlns="http://www.w3.org/2000/svg" role="img" version="1.1" x="0" y="0" viewBox="0 0 263 55"
  xml:space="preserve" width="96" height="24">
  <title>Хекслет</title>
  <style>
    .ct0 {
      fill: #212529
    }
  </style>
  <path class="ct0"
    d="m36 12-11 4-6 10-7-10-11-4 13 20L0 54h8l10-16 11 16h8L23 32zM47 33c1-4 5-8 10-8s9 4 10 8H47zm10-14c-10 0-18 8-18 18 0 11 8 18 18 18 7 0 14-4 17-11h-8c-1 3-5 5-9 5-6 0-10-4-11-10h28c1-11-6-20-17-20M112 20h-9L88 35V20h-7v34h7V38l17 16h9L96 36zM133 26c4 0 8 2 9 6h7c-1-8-8-13-16-13-11 0-18 8-18 18s7 18 17 18c8 0 16-5 17-13h-7c-1 4-5 6-10 6-6 0-10-4-10-11 0-6 4-11 11-11M160 40c-1 7-2 8-6 8h-2v7h4c5 0 9-4 11-14l2-14h12v27h7V20h-25l-3 20zM202 33c2-4 5-8 11-8 5 0 8 4 9 8h-20zm11-14c-11 0-18 8-18 18 0 11 7 18 18 18 7 0 14-4 16-11h-7c-2 3-5 5-9 5-6 0-10-4-11-10h28c1-11-6-20-17-20M252 20h-18v7h11v27h7V27h11v-7z">
  </path>
  <path style="fill:#136ef6" d="M36 7 19 0 1 7l18 6z"></path>
</svg>